PathFileType	4	(X/Y/Z)	Patient4_TMGait_0pt6_02_left_45.trc.trc
DataRate	CameraRate	NumFrames	NumMarkers	Units	OrigDataRate	OrigDataStartFrame	OrigNumFrames
81.871345029240	81.871345029240	6	33	mm	81.871345029240	36	       141
Frame#	Time	Sacral			L.Shoulder			Chest			R.Shoulder			Neck			R.ASIS			L.ASIS			R.Thigh.Superior			R.Thigh.Lateral			R.Thigh.Inferior			R.Patella			L.Thigh.Superior			L.Thigh.Lateral			L.Thigh.Inferior			L.Patella			L.Shank.Superior			L.Shank.Lateral			L.Shank.Inferior			R.Shank.Superior			R.Shank.Lateral			R.Shank.Inferior			R.Heel			R.Midfoot.Superior			R.Midfoot.Lateral			R.Toe			L.Heel			L.Midfoot.Lateral			L.Midfoot.Superior			L.Toe			L.Elbow			L.Wrist			R.Elbow			R.Wrist			
		X1	Y1	Z1	X2	Y2	Z2	X3	Y3	Z3	X4	Y4	Z4	X5	Y5	Z5	X6	Y6	Z6	X7	Y7	Z7	X8	Y8	Z8	X9	Y9	Z9	X10	Y10	Z10	X11	Y11	Z11	X12	Y12	Z12	X13	Y13	Z13	X14	Y14	Z14	X15	Y15	Z15	X16	Y16	Z16	X17	Y17	Z17	X18	Y18	Z18	X19	Y19	Z19	X20	Y20	Z20	X21	Y21	Z21	X22	Y22	Z22	X23	Y23	Z23	X24	Y24	Z24	X25	Y25	Z25	X26	Y26	Z26	X27	Y27	Z27	X28	Y28	Z28	X29	Y29	Z29	X30	Y30	Z30	X31	Y31	Z31	X32	Y32	Z32	X33	Y33	Z33	

36	55.337500000000	860.028829895608	1007.812185377127	487.369267304928	1029.124464273680	1432.494005878164	302.561137462163	1144.203906081465	1357.016009796319	451.686386737246	1078.120565366623	1431.959054096182	631.470566720474	1042.828916788186	1491.278394139545	454.400229131937	1087.979581526635	936.783403121634	591.990476331019	1063.039270215844	956.800977253989	318.470994304882	1097.941444405713	723.925246422517	571.714178147730	1001.714522833103	627.101997578066	637.189149965015	1070.296132169016	559.146292667269	562.445803265153	1053.102708752659	458.188572981687	578.350729100613	1135.901894297462	766.161958259055	356.085055959904	1068.541151981050	637.579036754195	294.184911936954	1164.479827874209	572.796830229272	358.446180422363	1176.342929209915	501.675110509412	366.753065642906	1154.122418004584	427.373192138632	358.504350738768	1074.780600251548	306.428622339308	306.815306267977	1135.616040446259	199.014344644396	375.842829762293	986.188060571683	387.283906085802	585.377000552157	877.411709052716	326.519780289664	650.044298522297	875.301850166254	219.517659681409	594.252676082699	685.173310527501	108.510242940192	573.270939063721	864.795349620161	106.228288898901	604.345429364841	763.357555209302	70.209797189492	641.829681680689	962.067099500638	36.152802628364	623.472883679121	1018.191883231937	38.901563887733	414.995572713100	1093.161165016760	37.018654298186	335.473957207606	1175.453431363057	97.850066046778	363.425100645553	1304.831796973472	44.856968257868	336.779672548499	912.274584513463	1098.317014195788	191.136632913049	895.298153435661	838.425743263743	216.074517691065	1201.925916254142	1119.642834969949	757.089115837763	1403.018768093849	1216.279315425848	643.328913884397	
37	55.349714285714	859.876132474989	1008.869986124687	483.901357387848	1029.996077393477	1433.954456830839	300.218451354218	1144.263034259486	1358.236001019272	449.841056495630	1077.269369562138	1433.078929778131	629.325397221704	1042.713306604299	1492.473055708683	452.174538542587	1087.496612857869	937.995751515484	589.249856348548	1063.518017410887	958.027823838703	315.785769738776	1101.720210437624	725.834697517229	569.673068676971	1007.966374461353	627.456597764266	635.597379160996	1078.505839452614	560.265727618202	561.305738182555	1062.368839610421	457.792133520830	578.849874393415	1134.825544219175	765.552817075623	352.636821624170	1065.209770237546	637.581981088445	292.020148067657	1160.532380726893	571.937555231804	356.158727936456	1171.602783247802	501.059216049142	365.037228879056	1149.044317929152	426.954761548977	357.025556361796	1069.064578048689	306.281429750672	305.815306500216	1129.255706238834	198.860057622609	375.339009902201	993.132029927958	387.964562364728	585.685037151764	881.773369728977	331.188576022804	649.634967914875	877.125613733773	223.654432237542	595.143273992345	683.538603395964	120.505402495663	574.138865780148	862.481067148820	108.338322187277	604.847919594717	759.532987715191	77.692762682106	642.362840338923	955.066443539567	35.367252161969	623.356167854906	1010.959629813598	38.942675263545	414.958586885122	1085.900957253734	36.980948617754	335.416104632554	1168.281090288315	97.819205395559	363.287408328118	1297.656396279987	44.529528983308	336.646147920006	919.114669597053	1097.869440554225	186.541856433787	909.711276434683	837.488073447034	210.234092530337	1192.053497318144	1116.043766708964	754.441813599206	1399.657057199338	1202.152985812982	644.206741217495	
38	55.361928571429	859.544424349460	1009.677519460676	480.512162671534	1030.815236549951	1435.219484977486	297.933599039783	1144.164676354161	1359.272171424543	448.141185660479	1076.120467706132	1433.982943132729	627.300482861676	1042.383967178552	1493.488670137003	450.019388897094	1086.885971345771	939.012671979655	586.627931021588	1063.888710746745	959.037309622040	313.258921275490	1105.893285010000	727.840691359589	567.630384188074	1014.860854793377	627.776800763704	634.045838123346	1087.313861790172	561.522293957491	560.045950429016	1072.246768126057	457.600676600917	578.987947244238	1133.537129373839	764.730668549888	349.302129006306	1061.832846591252	637.518741521811	289.819360993353	1156.477827672331	571.044350909016	353.932956349801	1166.735377450158	500.367943421029	363.258512533469	1143.863118459812	426.446600136141	355.474938352323	1063.224263288317	306.035503094827	304.773029990614	1122.806412573491	198.617065031331	374.788306140308	1000.810185437301	388.789152237674	585.759677497695	887.088094218925	336.133005706655	649.152157595564	879.728845763636	228.183566541306	595.928151432776	682.994021828682	133.551512927179	575.041495789848	860.657876519689	110.931082212263	605.222944985531	756.438922805659	86.190505909772	642.938295176317	948.146766813547	34.364511120080	623.272536128891	1003.641982389524	38.961761133758	414.919959956599	1078.558330896670	36.901457439004	335.356271713176	1161.047283288349	97.706542073671	363.163759236239	1290.409642832301	44.106439395973	336.541354115270	926.244115199683	1097.393507732921	181.708026979712	925.086144994329	836.725016458121	204.305380139086	1181.566515261230	1112.351651107348	751.591744975585	1395.830313518963	1186.460703709351	645.437078482160	
39	55.374142857143	859.010042727184	1010.215777471126	477.236534971040	1031.546152455590	1436.247745500965	295.723988641263	1143.890452312273	1360.083964655282	446.591411894095	1074.695223886940	1434.639271391746	625.415250852036	1041.857154942893	1494.302164712841	447.950354918688	1086.137056586754	939.814392532706	584.116500420046	1064.114598594709	959.825539931848	310.872800263932	1110.348897829705	729.967299639149	565.562746143009	1022.264861533254	628.124256916188	632.504914931825	1096.569005808947	562.976159416166	558.639883024667	1082.629975600239	457.670813322647	578.712817172869	1132.081416740790	763.786209787110	346.151352633800	1058.528711799531	637.421394736137	287.608366845735	1152.434155071494	570.156693678927	351.789113927235	1161.871057455325	499.625887936147	361.448842082962	1138.698063450539	425.859427095035	353.890685934271	1057.374073174040	305.721404540518	303.696101009320	1116.323736721085	198.295197377100	374.207204255486	1009.120583671677	389.800163494316	585.541445792072	893.296156614992	341.334405658681	648.570168972077	883.081014983570	233.105704399830	596.554425949787	683.617971661697	147.505201021077	575.911982626276	859.387814459971	114.097171808128	605.483867175862	754.175734542883	95.659179809618	643.512914867854	941.411983215041	33.176415479145	623.249446791238	996.270331926261	38.966303803840	414.871231580500	1071.164640703810	36.799277355583	335.287570291325	1153.771714700672	97.540570198147	363.050367054218	1283.114022321406	43.637211758809	336.456072153078	933.719857962099	1096.845201134254	176.683016282492	941.368322807331	836.147033207391	198.335732641167	1170.548904894780	1108.580808546307	748.580353733093	1391.354130879244	1169.296554968285	647.020247321861	
40	55.386357142857	858.255915124713	1010.495140665933	474.097119855922	1032.151116091281	1437.023856177797	293.607584457770	1143.426790329363	1360.656478376786	445.189758408817	1073.023033242412	1435.038313105488	623.683782156483	1041.157437270617	1494.909510525673	445.982086989392	1085.239895764708	940.407282685789	581.699318572600	1064.168731027005	960.407586903854	308.606547678870	1114.952825552962	732.246315090890	563.445556449833	1030.023690723925	628.573096932453	630.950845922664	1106.106208888077	564.699100753371	557.076389641428	1093.413165752875	458.068446376692	578.018790938911	1130.507158610891	762.798706481960	343.220185702837	1055.358113963644	637.305535253480	285.425493547828	1148.483760215807	569.295118674507	349.737182503059	1157.108119468735	498.853076519057	359.649808114891	1133.635353319808	425.206545027291	352.316904220008	1051.597004639005	305.368622974594	302.605035697938	1109.847422575193	197.908380834857	373.617393434757	1017.961197166854	391.047302084020	585.005517206059	900.316393399843	346.766716961380	647.868224147878	887.155188044984	238.403782517571	596.978163500877	685.466058383251	162.137594231635	576.657322383389	858.766173919420	117.898253348451	605.656156488235	752.846813476827	105.976965607120	644.026023582499	935.023713181122	31.893189705579	623.313938540754	988.873262687088	38.962545761323	414.808326480390	1063.747780176132	36.690854104616	335.206780977690	1146.471467067941	97.348866671364	362.943807648671	1275.789686501666	43.167229148761	336.380275001586	941.600993823093	1096.207618232619	171.528679486897	958.495845311904	835.784617593886	192.371861370525	1159.083384479023	1104.763904306367	745.459211877511	1386.034026516033	1150.787430535542	648.942601676688	
41	55.398571428571	857.276272090130	1010.551325653610	471.105142573198	1032.596844677250	1437.557392892809	291.600416005035	1142.767550801206	1361.000299008854	443.928671199367	1071.137694208258	1435.193550394026	622.112498420687	1040.314804972953	1495.324192173889	444.125455905379	1084.185913178154	940.820182494385	579.360517538487	1064.036782468823	960.812734337385	306.444316317257	1119.562334497496	734.712135106975	561.258230222394	1037.976251606483	629.202344724503	629.370748376437	1115.760578148685	566.766205595777	555.362745092609	1104.495203036687	458.864411306539	576.944655164202	1128.860105199103	761.826209829101	340.512308685884	1052.329280272413	637.174561347504	283.315005913122	1144.668476451308	568.464442836296	347.781004291448	1152.504285984652	498.064767523673	357.906100612828	1128.721863635400	424.503113790153	350.797976123022	1045.940754639230	305.002849779115	301.526841954298	1103.399330005339	197.472892264028	373.042065220721	1027.236713956061	392.582736160775	584.164689758393	908.052178412510	352.393143520439	647.031417102649	891.934275964598	244.035814766283	597.167544290663	688.565066816808	177.130045969833	577.168193310016	858.919388711956	122.348617020409	605.766641304153	752.557621874891	116.937170559148	644.405340546595	929.214119540247	30.664763328317	623.488894386951	981.472745385197	38.955495885920	414.730730027567	1056.328965869255	36.588490171162	335.113795157920	1139.159422433766	97.154306395484	362.841606991640	1268.452189806369	42.731367832516	336.305597528470	949.935097137255	1095.495307369903	166.316602837306	976.396203565014	835.691431054943	186.460789204061	1147.252041496302	1100.956622976145	742.286742112043	1379.671642850572	1131.088725110871	651.178779757568	
